<?xml version="1.0" encoding="utf-8"?>
<!-- Generator: Adobe Illustrator 16.0.0, SVG Export Plug-In . SVG Version: 6.00 Build 0)  -->
<!DOCTYPE svg PUBLIC "-//W3C//DTD SVG 1.1//EN" "http://www.w3.org/Graphics/SVG/1.1/DTD/svg11.dtd">
<svg version="1.1" id="Layer_1" xmlns="http://www.w3.org/2000/svg" xmlns:xlink="http://www.w3.org/1999/xlink" x="0px" y="0px"
	 width="256px" height="256px" viewBox="0 0 256 256" enable-background="new 0 0 256 256" xml:space="preserve">
<g>
	<path fill="#BCF170" d="M226.951,88.494c-20.843,26.013-52.153,62.492-72.991,88.51c-27.664-22.164-52.797-47.297-74.957-74.958
		c26.012-20.843,62.493-52.153,88.504-72.991L226.951,88.494z"/>
	<polygon fill="#EDEDED" points="70.657,168.903 87.098,185.344 -0.007,256.006 	"/>
	<path fill="#95CEB4" d="M222.234,94.33c12.327-1.205,24.335-6.523,33.772-15.962L177.639-0.006
		c-9.443,9.438-14.762,21.446-15.961,33.772L222.234,94.33z"/>
	<path fill="#95CEB4" d="M160.813,168.503l-73.31-73.315c-25.512-3.421-52.271,4.658-71.878,24.267l120.923,120.921
		C156.155,220.774,164.235,194.009,160.813,168.503z"/>
	<path opacity="0.15" d="M160.813,168.524c18.766-23.022,43.109-51.62,61.427-74.195c12.321-1.207,24.329-6.523,33.767-15.962
		L216.82,39.181L-0.007,256.006l84.024-68.162l52.532,52.532C156.149,220.779,164.23,194.025,160.813,168.524z"/>
</g>
</svg>
